<svg xmlns="http://www.w3.org/2000/svg" width="326" height="308" viewBox="0 0 326 308" version="1.1"><path d="M 175 196.541 C 156.864 200.591, 140.898 202.259, 117.262 202.572 C 105.032 202.734, 94.569 203.148, 94.012 203.492 C 92.330 204.532, 92.877 207, 94.790 207 C 98.757 207, 108.615 210.229, 110.738 212.224 C 112.441 213.824, 113 215.467, 113 218.875 C 113 221.456, 108.675 239.536, 102.935 260.950 C 97.399 281.603, 92.484 299.966, 92.014 301.757 C 90.441 307.740, 90.250 307.709, 127.008 307.447 C 146.704 307.306, 160.583 306.817, 161.157 306.243 C 161.689 305.711, 164.517 295.876, 167.442 284.388 C 170.367 272.900, 174.163 258.712, 175.877 252.861 C 183.489 226.878, 190.819 215.374, 199.244 216.186 C 202.841 216.533, 202.926 216.913, 200.986 224 C 195.602 243.665, 225.781 255.978, 251.404 244.570 C 257.756 241.742, 266.455 233.989, 269.105 228.794 C 273.992 219.216, 272.243 209.017, 264.557 202.268 C 258.784 197.200, 252.284 194.962, 241.500 194.329 C 222.635 193.223, 203.894 200.620, 188.250 215.348 C 185.363 218.066, 183 219.719, 183 219.022 C 183 218.324, 184.575 213.046, 186.500 207.294 C 188.425 201.541, 190 196.196, 190 195.417 C 190 193.542, 187.641 193.719, 175 196.541" stroke="none" fill="#1c0404" fill-rule="evenodd"/><path d="M 131 0.639 C 129.625 0.841, 125.125 1.491, 121 2.083 C 94.289 5.919, 66.235 17.061, 46.840 31.539 C 36.878 38.974, 19.613 56.728, 16.111 63.138 C 13.880 67.221, 14.296 66.946, 22.614 58.839 C 37.342 44.485, 44.364 39.343, 60.732 30.928 C 97.586 11.982, 147.393 10.013, 193.776 25.669 C 207.753 30.387, 217.853 35.116, 227.443 41.432 C 264.660 65.947, 284.381 103.937, 277.583 138.020 C 275.450 148.712, 268.990 162.186, 261.566 171.428 C 258.505 175.239, 256 178.660, 256 179.031 C 256 179.401, 258.951 180.193, 262.558 180.791 C 274.610 182.788, 281.225 187.572, 284.328 196.534 C 285.062 198.654, 286.124 200.541, 286.688 200.729 C 288.055 201.185, 302.824 185.506, 308.437 177.641 C 314.514 169.124, 321.559 154.171, 324.050 144.500 C 325.627 138.378, 326.195 132.510, 326.468 119.500 C 326.664 110.150, 326.527 105.200, 326.162 108.500 L 325.500 114.500 324.763 109.706 C 322.849 97.256, 314.530 78.985, 304.652 65.536 C 297.002 55.122, 282.678 41.161, 271.422 33.150 C 261.691 26.224, 242.844 16.662, 231 12.643 C 216.362 7.675, 195.577 3.029, 179.026 1.026 C 171.189 0.077, 136.720 -0.200, 131 0.639 M 1.117 123.698 C 1.023 131.051, 1.523 134.562, 3.608 141.198 C 6.235 149.560, 12.556 163.608, 14.129 164.580 C 15.017 165.129, 24 161.497, 24 160.590 C 24 160.302, 22.009 157.825, 19.575 155.084 C 10.898 145.314, 4.065 131.493, 2.109 119.753 C 1.275 114.745, 1.228 114.928, 1.117 123.698 M 236.250 193.689 C 237.213 193.941, 238.787 193.941, 239.750 193.689 C 240.713 193.438, 239.925 193.232, 238 193.232 C 236.075 193.232, 235.287 193.438, 236.250 193.689 M 156.269 199.693 C 157.242 199.947, 158.592 199.930, 159.269 199.656 C 159.946 199.382, 159.150 199.175, 157.500 199.195 C 155.850 199.215, 155.296 199.439, 156.269 199.693 M 206.750 201.068 C 204.688 202.157, 203 203.271, 203 203.544 C 203 203.990, 210.899 200.298, 211.917 199.377 C 213.067 198.336, 210.064 199.319, 206.750 201.068 M 148.750 200.662 C 149.438 200.940, 150.563 200.940, 151.250 200.662 C 151.938 200.385, 151.375 200.158, 150 200.158 C 148.625 200.158, 148.063 200.385, 148.750 200.662 M 265.697 203.002 C 267.456 204.926, 269.576 208.075, 270.408 210 C 271.241 211.925, 271.939 212.915, 271.961 212.200 C 272.029 209.936, 269.294 205.604, 265.839 202.502 L 262.500 199.504 265.697 203.002 M 137.750 201.706 C 138.988 201.944, 141.012 201.944, 142.250 201.706 C 143.488 201.467, 142.475 201.272, 140 201.272 C 137.525 201.272, 136.512 201.467, 137.750 201.706 M 108.296 202.744 C 112.583 202.932, 119.333 202.931, 123.296 202.742 C 127.258 202.552, 123.750 202.399, 115.500 202.400 C 107.250 202.401, 104.008 202.556, 108.296 202.744 M 186.521 215.976 C 185.538 217.063, 184.343 217.712, 183.866 217.417 C 183.390 217.123, 183 217.668, 183 218.628 C 183 220.039, 183.576 219.822, 186 217.500 C 187.650 215.919, 189 214.485, 189 214.313 C 189 213.585, 188.200 214.122, 186.521 215.976 M 272.252 217.500 C 272.263 219.700, 272.468 220.482, 272.707 219.238 C 272.946 217.994, 272.937 216.194, 272.687 215.238 C 272.437 214.282, 272.241 215.300, 272.252 217.500 M 190.405 220.250 L 188.500 222.500 190.750 220.595 C 191.988 219.547, 193 218.535, 193 218.345 C 193 217.545, 192.195 218.136, 190.405 220.250 M 112.158 223 C 112.158 224.375, 112.385 224.938, 112.662 224.250 C 112.940 223.563, 112.940 222.438, 112.662 221.750 C 112.385 221.063, 112.158 221.625, 112.158 223 M 269.144 228.750 C 268.053 231.300, 268.078 231.359, 269.484 229.559 C 270.318 228.491, 271 227.254, 271 226.809 C 271 225.289, 270.322 225.999, 269.144 228.750 M 182.624 232.539 C 181.659 235.053, 181.943 235.702, 183.122 233.675 C 183.706 232.671, 183.973 231.639, 183.715 231.382 C 183.458 231.124, 182.966 231.645, 182.624 232.539 M 263.453 236.250 L 259.500 240.500 263.750 236.547 C 266.087 234.373, 268 232.460, 268 232.297 C 268 231.540, 267.129 232.298, 263.453 236.250 M 113.750 307.662 C 114.438 307.940, 115.563 307.940, 116.250 307.662 C 116.938 307.385, 116.375 307.158, 115 307.158 C 113.625 307.158, 113.063 307.385, 113.750 307.662" stroke="none" fill="#07846b" fill-rule="evenodd"/></svg>